<svg width="129" height="128" viewBox="0 0 129 128" fill="none" xmlns="http://www.w3.org/2000/svg">
<path d="M129 62.481L117.099 50.5798C117.779 52.973 119.42 60.3377 119.514 61.5162L129 62.481Z" fill="#A79772"/>
<path fill-rule="evenodd" clip-rule="evenodd" d="M108.33 94.6691L108.429 94.5421L108.517 94.4076C117.857 80.1515 120.985 67.7705 119.786 57.0992C118.586 46.4236 113.126 38.0733 106.488 31.748C93.3843 19.2623 74.9634 13.9684 71.8903 13.1426C71.0367 12.9132 70.0246 12.9363 69.0577 13.3916C68.1202 13.8332 67.4907 14.5556 67.1302 15.2744C66.4356 16.6597 66.5926 18.242 67.3654 19.4356L70.0969 23.6546C69.3204 23.7894 68.528 24.005 67.7239 24.3143C61.7765 26.6017 57.0133 33.3937 53.7609 45.5903C50.0775 59.4031 42.8568 66.4375 35.8976 70.1346C28.7861 73.9126 21.5998 74.3818 17.9235 74.3818C14.7952 74.3818 12.2146 73.4045 10.3862 72.3959C9.47592 71.8937 8.77565 71.3963 8.31874 71.0392C8.09132 70.8615 7.92741 70.721 7.83125 70.6357C7.78326 70.5931 7.75247 70.5646 7.73941 70.5523L7.73478 70.548C6.23564 69.0877 3.85729 69.0428 2.30389 70.4499C0.743713 71.8631 0.559017 74.2488 1.8831 75.8853L4.96691 73.3902C1.8831 75.8853 1.88419 75.8867 1.8855 75.8883L1.88925 75.8929L1.90077 75.9071L1.93983 75.9549C1.97295 75.9954 2.02018 76.0529 2.08124 76.1266C2.20335 76.274 2.38081 76.4865 2.61131 76.7579C3.07224 77.3007 3.74572 78.0797 4.61329 79.0463C6.34748 80.9783 8.86248 83.6652 12.0104 86.7148C18.2849 92.7933 27.1732 100.409 37.4863 106.335C47.7664 112.241 59.7913 116.656 72.2241 115.841C84.8455 115.014 97.3126 108.834 108.33 94.6691ZM12.5593 81.6802C7.75984 76.8417 4.96711 73.39 4.96711 73.39C4.96711 73.39 4.96722 73.3902 4.96743 73.3904C5.30192 73.8029 63.6629 145.634 105.197 92.2321C120.667 68.6201 117.577 51.6925 108.558 39.9402C117.578 51.6926 120.669 68.6206 105.199 92.2335C72.6396 134.095 29.7408 99.0013 12.5593 81.6802Z" fill="url(#paint0_linear_3106_3218)"/>
<path fill-rule="evenodd" clip-rule="evenodd" d="M47.6049 54.9179C50.2914 49.9694 55.5333 46.6099 61.5598 46.6099C69.5381 46.6099 76.1413 52.4979 77.2607 60.1657C80.8499 72.1206 63.8615 86.4641 47.8728 86.4641C33.7907 86.4641 10.577 75.9484 20.1034 66.6288C23.0402 63.7558 26.3186 63.7706 29.832 63.7865C32.4259 63.7983 35.1479 63.8106 37.9551 62.6618C41.3736 61.2628 43.6276 58.9513 45.7935 56.7301C46.3964 56.1118 46.9924 55.5005 47.6049 54.9179Z" fill="#A78F72"/>
<path d="M97.1042 57.1438C93.8178 57.1438 91.1536 54.4797 91.1536 51.1933C91.1536 47.9068 93.8178 45.2427 97.1042 45.2427C100.391 45.2427 103.055 47.9068 103.055 51.1933C103.055 54.4797 100.391 57.1438 97.1042 57.1438Z" fill="#161619"/>
<defs>
<linearGradient id="paint0_linear_3106_3218" x1="49.5589" y1="54.7781" x2="103.468" y2="102.032" gradientUnits="userSpaceOnUse">
<stop stop-color="#D1C2B0"/>
<stop offset="1" stop-color="#FBEDDD"/>
</linearGradient>
</defs>
</svg>
