<svg width="823" height="176" viewBox="0 0 823 176" fill="none" xmlns="http://www.w3.org/2000/svg">
<path d="M287.496 110.052C287.496 124.42 276.305 133.263 256.824 133.263C237.482 133.263 226.014 123.73 224.633 107.979H238.034C238.587 117.098 245.909 122.762 257.1 122.762C266.91 122.762 273.403 119.308 273.403 112.4C273.403 106.321 269.673 103.696 260.554 101.9L248.673 99.6897C235.133 97.0647 227.534 90.1566 227.534 79.1038C227.534 66.255 238.725 57.2746 255.719 57.2746C273.265 57.2746 285.147 66.6694 286.39 81.7289H272.989C272.16 72.8866 265.666 67.7747 255.857 67.7747C247.015 67.7747 241.074 71.505 241.074 77.8604C241.074 83.8013 244.804 86.5645 253.646 88.2224L266.081 90.5711C280.588 93.1962 287.496 99.5515 287.496 110.052Z" fill="#161619"/>
<path d="M315.304 90.5711V131.881H301.349V32.6821H315.304V70.3998C320.139 62.5246 327.6 57.2746 337.685 57.2746C352.745 57.2746 362.692 66.9458 362.692 84.4921V131.881H348.738V89.1895C348.738 76.617 343.212 69.5708 332.85 69.5708C323.317 69.5708 315.304 77.5841 315.304 90.5711Z" fill="#161619"/>
<path d="M410.513 133.263C389.789 133.263 374.591 116.96 374.591 95.2686C374.591 73.5774 389.789 57.2746 410.513 57.2746C431.237 57.2746 446.435 73.5774 446.435 95.2686C446.435 116.96 431.237 133.263 410.513 133.263ZM410.513 120.966C422.533 120.966 432.066 111.295 432.066 95.2686C432.066 79.242 422.533 69.709 410.513 69.709C398.493 69.709 389.098 79.242 389.098 95.2686C389.098 111.295 398.493 120.966 410.513 120.966Z" fill="#161619"/>
<path d="M473.232 94.4396V131.881H459.278V58.6562H472.265V74.1301C477.377 64.0444 488.43 57.689 500.45 57.689V72.1958C484.7 71.3669 473.232 78.2749 473.232 94.4396Z" fill="#161619"/>
<path d="M539.96 133.263C518.822 133.263 504.591 117.927 504.591 94.8541C504.591 73.163 519.375 57.2746 539.546 57.2746C561.375 57.2746 575.882 74.959 573.395 98.7226H518.822C519.927 113.644 527.388 122.348 539.684 122.348C550.046 122.348 557.23 116.683 559.579 107.15H573.395C569.803 123.453 557.23 133.263 539.96 133.263ZM539.27 67.7747C528.079 67.7747 520.48 75.788 518.96 89.4658H558.612C557.921 75.9262 550.599 67.7747 539.27 67.7747Z" fill="#161619"/>
<path d="M656.758 95.2686C656.758 117.236 644.048 133.263 624.291 133.263C613.929 133.263 605.087 128.012 599.837 118.756V131.881H586.85V32.6821H600.804V71.2287C605.916 62.2483 614.343 57.2746 624.291 57.2746C643.91 57.2746 656.758 73.0248 656.758 95.2686ZM642.252 95.2686C642.252 78.6894 633.548 69.5708 621.528 69.5708C609.922 69.5708 600.804 78.5512 600.804 94.9922C600.804 111.157 609.646 120.828 621.528 120.828C633.548 120.828 642.252 111.571 642.252 95.2686Z" fill="#161619"/>
<path d="M686.518 41.6625C686.518 46.9126 682.373 50.9192 676.432 50.9192C670.491 50.9192 666.208 46.9126 666.208 41.6625C666.208 36.2742 670.491 32.4058 676.432 32.4058C682.373 32.4058 686.518 36.2742 686.518 41.6625ZM683.478 131.881H669.524V58.6562H683.478V131.881Z" fill="#161619"/>
<path d="M715.422 94.4396V131.881H701.468V58.6562H714.455V74.1301C719.567 64.0444 730.62 57.689 742.64 57.689V72.1958C726.89 71.3669 715.422 78.2749 715.422 94.4396Z" fill="#161619"/>
<path d="M746.782 95.2686C746.782 73.0248 759.492 57.2746 779.249 57.2746C789.059 57.2746 797.625 62.2483 802.736 71.2287V32.6821H816.691V131.881H803.704V118.756C798.453 128.012 789.611 133.263 779.249 133.263C759.492 133.263 746.782 117.236 746.782 95.2686ZM761.288 95.2686C761.288 111.571 769.854 120.828 782.012 120.828C793.894 120.828 802.736 111.157 802.736 94.9922C802.736 78.5512 793.618 69.5708 782.012 69.5708C769.854 69.5708 761.288 78.6894 761.288 95.2686Z" fill="#161619"/>
<path d="M174.65 82.2492L158.412 66.0107C159.34 69.2761 161.578 79.3248 161.707 80.9328L174.65 82.2492Z" fill="#A79772"/>
<path fill-rule="evenodd" clip-rule="evenodd" d="M146.446 126.167L146.581 125.994L146.701 125.81C159.445 106.358 163.713 89.4653 162.077 74.9049C160.44 60.3386 152.99 48.945 143.932 40.3145C126.053 23.2784 100.919 16.0552 96.726 14.9284C95.5613 14.6154 94.1803 14.647 92.8611 15.2683C91.5819 15.8707 90.723 16.8564 90.2312 17.8371C89.2833 19.7273 89.4975 21.8863 90.552 23.515L94.279 29.2715C93.2196 29.4554 92.1384 29.7496 91.0412 30.1716C82.9263 33.2927 76.4272 42.56 71.9894 59.2016C66.9636 78.0484 57.1114 87.6465 47.6158 92.691C37.9127 97.8458 28.1073 98.4861 23.0912 98.4861C18.8228 98.4861 15.3017 97.1525 12.8069 95.7764C11.5649 95.0912 10.6095 94.4126 9.98603 93.9253C9.67572 93.6828 9.45209 93.4911 9.32088 93.3747C9.2554 93.3166 9.21339 93.2777 9.19556 93.2609L9.18925 93.255C7.14375 91.2626 3.89862 91.2013 1.77909 93.1211C-0.34969 95.0494 -0.601697 98.3046 1.20494 100.538L5.41222 97.1334C1.20494 100.538 1.20643 100.539 1.20822 100.542L1.21333 100.548L1.22906 100.567L1.28235 100.633C1.32753 100.688 1.39198 100.766 1.47529 100.867C1.6419 101.068 1.88404 101.358 2.19855 101.728C2.82746 102.469 3.74639 103.532 4.93014 104.85C7.29636 107.487 10.7279 111.153 15.0231 115.314C23.5843 123.608 35.7119 133.999 49.7836 142.084C63.8103 150.143 80.2175 156.167 97.1814 155.055C114.403 153.927 131.413 145.495 146.446 126.167ZM29.1435 120.806C57.1629 144.477 104.688 171.032 142.17 122.841C167.551 84.0998 156.316 58.5469 138.428 42.6017C156.318 58.5467 167.557 84.1004 142.173 122.844C104.69 171.037 57.1625 144.478 29.1435 120.806ZM106.985 38.9402C106.72 38.6752 106.44 38.4133 106.146 38.1573C106.44 38.4139 106.721 38.6762 106.986 38.9418L106.985 38.9402ZM5.92298 97.5933C5.61945 97.3328 5.44721 97.1668 5.41477 97.1352C5.41353 97.1337 5.41291 97.1329 5.41291 97.1329C5.41291 97.1329 5.58682 97.3046 5.92298 97.5933Z" fill="url(#paint0_linear_1184_11468)"/>
<path fill-rule="evenodd" clip-rule="evenodd" d="M63.5871 71.9316C67.2522 65.1778 74.4055 60.5923 82.6298 60.5923C93.5148 60.5923 102.524 68.6249 104.052 79.0858C108.954 95.3984 85.7727 114.972 63.9552 114.972C44.741 114.972 13.0671 100.624 26.0654 87.9081C30.0725 83.988 34.5457 84.0083 39.3395 84.0299C42.8788 84.046 46.5928 84.0628 50.4231 82.4953C55.0874 80.5864 58.1629 77.4325 61.1181 74.4018C61.9399 73.5591 62.7524 72.7259 63.5871 71.9316Z" fill="#A78F72"/>
<path d="M131.126 74.9665C126.642 74.9665 123.007 71.3314 123.007 66.8473C123.007 62.3631 126.642 58.728 131.126 58.728C135.61 58.728 139.245 62.3631 139.245 66.8473C139.245 71.3314 135.61 74.9665 131.126 74.9665Z" fill="#161619"/>
<defs>
<linearGradient id="paint0_linear_1184_11468" x1="66.256" y1="71.7379" x2="139.812" y2="136.213" gradientUnits="userSpaceOnUse">
<stop stop-color="#D1C2B0"/>
<stop offset="1" stop-color="#FBEDDD"/>
</linearGradient>
</defs>
</svg>
