<?xml version="1.0" encoding="UTF-8"?>
<!-- Generated by Pixelmator Pro 3.7.1 -->
<svg width="642" height="140" viewBox="0 0 642 140" xmlns="http://www.w3.org/2000/svg">
    <path id="Path" fill="#0d1117" stroke="none" d="M 581.450012 76.4105 C 581.450012 60.083801 591.067993 47.787102 605.958984 47.787102 C 612.578003 47.787102 618.161987 50.680496 622.299011 55.9505 L 622.299011 29.807098 L 636.570007 29.807098 L 636.570007 104.000504 L 623.437012 104.000504 L 623.437012 96.0438 C 619.093018 101.830498 613.094971 105.033798 605.958984 105.033798 C 591.067993 105.033798 581.450012 92.530502 581.450012 76.4105 Z M 596.237976 76.4105 C 596.237976 86.743797 602.132996 92.220497 609.164978 92.220497 C 616.301025 92.220497 622.195984 86.640503 622.195984 76.203796 C 622.195984 65.767105 616.197998 60.497101 609.164978 60.497101 C 602.132996 60.497101 596.237976 65.870499 596.237976 76.4105 Z"/>
    <path id="path1" fill="#0d1117" stroke="none" d="M 557.633972 77.2369 L 557.633972 104.000198 L 543.258972 104.000198 L 543.258972 48.820206 L 556.495972 48.820206 L 556.495972 59.463501 C 560.530029 52.436905 569.112976 48.200195 578.007019 48.200195 L 578.007019 63.0802 C 565.804016 62.1502 557.633972 65.043503 557.633972 77.2369 Z"/>
    <path id="path2" fill="#0d1117" stroke="none" d="M 532.742981 36.007095 C 532.742981 40.8638 528.812988 44.480499 523.125 44.480499 C 517.541016 44.480499 513.611023 40.8638 513.611023 36.007095 C 513.611023 30.943802 517.541016 27.327103 523.125 27.327103 C 528.812988 27.327103 532.742981 30.943802 532.742981 36.007095 Z M 530.46698 104.000504 L 516.093018 104.000504 L 516.093018 48.820496 L 530.46698 48.820496 L 530.46698 104.000504 Z"/>
    <path id="path3" fill="#0d1117" stroke="none" d="M 506.881989 76.4105 C 506.881989 92.530502 497.264008 105.033798 482.372009 105.033798 C 475.237 105.033798 469.239014 101.830498 464.998993 96.0438 L 464.998993 104.000504 L 451.761993 104.000504 L 451.761993 29.807098 L 466.135986 29.807098 L 466.135986 55.9505 C 470.170013 50.577103 475.753998 47.787102 482.372009 47.787102 C 497.264008 47.787102 506.881989 60.083801 506.881989 76.4105 Z M 492.092987 76.4105 C 492.092987 65.870499 486.199005 60.497101 479.166992 60.497101 C 472.238007 60.497101 466.23999 65.767105 466.23999 76.203796 C 466.23999 86.640503 472.031006 92.220497 479.166992 92.220497 C 486.199005 92.220497 492.092987 86.743797 492.092987 76.4105 Z"/>
    <path id="path4" fill="#0d1117" stroke="none" d="M 415.867004 104.930397 C 399.320007 104.930397 388.255005 93.460403 388.255005 76.203796 C 388.255005 59.773804 399.734009 47.787102 415.660004 47.787102 C 433.136993 47.787102 444.718994 61.943802 442.134003 79.923798 L 402.940002 79.923798 C 403.869995 88.913803 408.213989 93.873802 415.556 93.873802 C 421.86499 93.873802 426.105011 90.773804 427.759003 85.297096 L 442.031006 85.297096 C 438.928009 97.8004 429.309998 104.930397 415.867004 104.930397 Z M 415.350006 58.327103 C 408.627991 58.327103 404.388 62.667099 403.147003 70.830399 L 426.932007 70.830399 C 426.518005 63.1838 422.174988 58.327103 415.350006 58.327103 Z"/>
    <path id="path5" fill="#0d1117" stroke="none" d="M 364.438995 77.2369 L 364.438995 104.000198 L 350.063995 104.000198 L 350.063995 48.820206 L 363.300995 48.820206 L 363.300995 59.463501 C 367.334015 52.436905 375.917999 48.200195 384.811005 48.200195 L 384.811005 63.0802 C 372.608002 62.1502 364.438995 65.043503 364.438995 77.2369 Z"/>
    <path id="path6" fill="#0d1117" stroke="none" d="M 312.86499 105.033798 C 296.835999 105.033798 284.839996 92.427101 284.839996 76.4104 C 284.839996 60.290405 296.835999 47.787102 312.86499 47.787102 C 328.894012 47.787102 340.890991 60.290405 340.890991 76.4104 C 340.890991 92.427101 328.894012 105.033798 312.86499 105.033798 Z M 312.86499 92.323799 C 320.001007 92.323799 326.10199 86.640404 326.10199 76.4104 C 326.10199 66.180405 320.001007 60.600403 312.86499 60.600403 C 305.730011 60.600403 299.627991 66.180405 299.627991 76.4104 C 299.627991 86.640404 305.730011 92.323799 312.86499 92.323799 Z"/>
    <path id="path7" fill="#0d1117" stroke="none" d="M 241.533005 73.930496 L 241.533005 104.000504 L 227.158005 104.000504 L 227.158005 29.807098 L 241.533005 29.807098 L 241.533005 56.053802 C 245.358994 50.990501 250.115997 47.787102 257.355011 47.787102 C 268.42099 47.787102 276.072998 55.0205 276.072998 68.350494 L 276.072998 104.000504 L 261.802002 104.000504 L 261.802002 73.2071 C 261.802002 65.0438 258.596008 60.497101 252.080994 60.497101 C 246.393005 60.497101 241.533005 65.0438 241.533005 73.930496 Z"/>
    <path id="path8" fill="#0d1117" stroke="none" d="M 217.343994 86.330498 C 217.343994 97.903801 208.554001 105.033798 192.835007 105.033798 C 177.115997 105.033798 168.326004 97.490501 167.188004 85.193802 L 180.942001 85.193802 C 181.046005 90.877098 185.906006 94.493797 193.042007 94.493797 C 198.626007 94.493797 202.865997 92.737099 202.865997 88.810402 C 202.865997 85.297096 200.591003 83.850403 195.317001 82.817101 L 185.389008 80.9571 C 175.460999 79.200401 169.462997 73.723801 169.462997 65.147095 C 169.462997 54.917099 178.253006 47.787102 192.007996 47.787102 C 205.865005 47.787102 215.378998 55.123795 216.412994 67.007095 L 202.658997 67.007095 C 202.141998 61.633804 198.108994 58.327103 192.007996 58.327103 C 186.733002 58.327103 183.216995 60.290405 183.216995 63.803802 C 183.216995 67.110397 185.492004 68.453796 190.455994 69.383804 L 201.108002 71.347099 C 211.863007 73.413803 217.343994 78.373802 217.343994 86.330498 Z"/>
    <path id="path9" fill="#b39e88" stroke="none" d="M 127.257004 68.943298 L 115.796997 57.492203 C 116.452003 59.794899 118.031998 66.881104 118.123001 68.014999 L 127.257004 68.943298 Z"/>
    <linearGradient id="linearGradient1" x1="50.7596" y1="61.532" x2="102.6354" y2="107.0398" gradientUnits="userSpaceOnUse">
        <stop offset="1e-05" stop-color="#d6c7b6" stop-opacity="1"/>
        <stop offset="1" stop-color="#ffedd9" stop-opacity="1"/>
    </linearGradient>
    <path id="path10" fill="url(#linearGradient1)" fill-rule="evenodd" stroke="none" d="M 107.352997 99.914497 L 107.447998 99.792297 L 107.532997 99.662903 C 116.527 85.9459 119.539001 74.033005 118.384003 63.765198 C 117.228996 53.493301 111.971001 45.458694 105.579002 39.372604 C 92.961098 27.359001 75.222801 22.265305 72.263496 21.470703 C 71.441498 21.25 70.466904 21.272202 69.535896 21.710403 C 68.633102 22.135101 68.027 22.8302 67.679901 23.521797 C 67.010902 24.854698 67.162102 26.377304 67.906303 27.525803 L 70.536598 31.585297 C 69.788902 31.714897 69.025902 31.922401 68.251602 32.220001 C 62.524502 34.420998 57.937801 40.9561 54.805901 52.691498 C 51.258999 65.981995 44.305901 72.750504 37.6045 76.3078 C 30.756599 79.942902 23.8365 80.394402 20.2964 80.394402 C 17.284 80.394402 14.7991 79.454102 13.03838 78.483597 C 12.16186 78.000397 11.487531 77.521797 11.04755 77.1782 C 10.82856 77.007202 10.670731 76.872002 10.57813 76.789902 C 10.53192 76.749001 10.502271 76.721397 10.48968 76.709702 L 10.48523 76.705498 C 9.04164 75.300499 6.75142 75.257301 5.25557 76.611099 C 3.753209 77.970901 3.575358 80.266403 4.850376 81.841003 L 7.81994 79.4403 C 4.850376 81.841103 4.851426 81.8424 4.85269 81.843903 L 4.8563 81.848396 L 4.867397 81.862 L 4.905008 81.907997 C 4.936892 81.946999 4.982374 82.002296 5.04117 82.073196 C 5.15876 82.215103 5.32964 82.419502 5.5516 82.680702 C 5.99545 83.202904 6.64399 83.952499 7.4794 84.8825 C 9.149341 86.741402 11.57115 89.326797 14.6025 92.261101 C 20.6444 98.109703 29.2033 105.437798 39.1343 111.139 C 49.0336 116.821999 60.6129 121.070999 72.584999 120.287003 C 84.738701 119.490997 96.743401 113.543999 107.352997 99.914497 Z M 15.131 87.416801 C 10.50936 82.761299 7.81994 79.4403 7.81994 79.4403 C 8.15227 79.8498 64.344704 148.947998 104.335999 97.569702 C 118.752998 75.583099 116.431999 59.619995 108.393997 48.364395 C 116.431999 59.620102 118.754997 75.583603 104.336998 97.571198 C 72.9851 137.850006 31.6759 104.082703 15.131 87.416801 Z"/>
    <path id="path11" fill="#b39e88" fill-rule="evenodd" stroke="none" d="M 77.4366 66.715599 C 80.892502 78.218498 64.533699 92.019402 49.137501 92.019402 C 35.577202 92.019402 13.22359 81.901398 22.3971 72.934097 C 25.2251 70.169701 28.381901 70.183998 31.7652 70.199295 C 34.263 70.210602 36.884102 70.222504 39.587299 69.117096 C 42.879101 67.770996 45.049599 65.546906 47.135201 63.409698 C 47.715698 62.814804 48.2897 62.2267 48.879299 61.666199 C 51.466202 56.904602 56.514 53.671906 62.317402 53.671906 C 70.000298 53.671906 76.358704 59.337502 77.4366 66.715599 Z"/>
    <path id="path12" fill="#161619" stroke="none" d="M 96.541702 63.807098 C 93.377197 63.807098 90.811501 61.243698 90.811501 58.081497 C 90.811501 54.919403 93.377197 52.356003 96.541702 52.356003 C 99.7062 52.356003 102.2715 54.919403 102.2715 58.081497 C 102.2715 61.243698 99.7062 63.807098 96.541702 63.807098 Z"/>
</svg>
