<svg width="561" height="120" viewBox="0 0 561 120" fill="none" xmlns="http://www.w3.org/2000/svg">
<path d="M196.053 75.1028C196.053 84.9085 188.421 90.9428 175.137 90.9428C161.947 90.9428 154.128 84.4371 153.186 73.6885H162.324C162.701 79.9114 167.694 83.7771 175.326 83.7771C182.015 83.7771 186.443 81.42 186.443 76.7057C186.443 72.5571 183.899 70.7657 177.681 69.54L169.579 68.0314C160.346 66.24 155.164 61.5257 155.164 53.9828C155.164 45.2143 162.795 39.0857 174.384 39.0857C186.349 39.0857 194.451 45.4971 195.299 55.7743H186.16C185.595 49.74 181.167 46.2514 174.478 46.2514C168.448 46.2514 164.397 48.7971 164.397 53.1343C164.397 57.1885 166.941 59.0743 172.97 60.2057L181.45 61.8085C191.342 63.6 196.053 67.9371 196.053 75.1028Z" fill="#F0F0EE"/>
<path d="M215.016 61.8085V90H205.5V22.3028H215.016V48.0428C218.313 42.6685 223.401 39.0857 230.278 39.0857C240.547 39.0857 247.331 45.6857 247.331 57.66V90H237.815V60.8657C237.815 52.2857 234.047 47.4771 226.981 47.4771C220.48 47.4771 215.016 52.9457 215.016 61.8085Z" fill="#F0F0EE"/>
<path d="M279.941 90.9428C265.809 90.9428 255.445 79.8171 255.445 65.0143C255.445 50.2114 265.809 39.0857 279.941 39.0857C294.073 39.0857 304.436 50.2114 304.436 65.0143C304.436 79.8171 294.073 90.9428 279.941 90.9428ZM279.941 82.5514C288.137 82.5514 294.638 75.9514 294.638 65.0143C294.638 54.0771 288.137 47.5714 279.941 47.5714C271.744 47.5714 265.337 54.0771 265.337 65.0143C265.337 75.9514 271.744 82.5514 279.941 82.5514Z" fill="#F0F0EE"/>
<path d="M322.71 64.4485V90H313.194V40.0285H322.05V50.5885C325.536 43.7057 333.073 39.3685 341.27 39.3685V49.2685C330.53 48.7028 322.71 53.4171 322.71 64.4485Z" fill="#F0F0EE"/>
<path d="M368.213 90.9428C353.798 90.9428 344.094 80.4771 344.094 64.7314C344.094 49.9285 354.175 39.0857 367.93 39.0857C382.816 39.0857 392.709 51.1543 391.013 67.3714H353.798C354.552 77.5543 359.639 83.4943 368.025 83.4943C375.091 83.4943 379.99 79.6285 381.591 73.1228H391.013C388.563 84.2485 379.99 90.9428 368.213 90.9428ZM367.742 46.2514C360.111 46.2514 354.929 51.72 353.892 61.0543H380.932C380.461 51.8143 375.467 46.2514 367.742 46.2514Z" fill="#F0F0EE"/>
<path d="M447.86 65.0143C447.86 80.0057 439.192 90.9428 425.719 90.9428C418.653 90.9428 412.624 87.36 409.044 81.0428V90H400.187V22.3028H409.703V48.6085C413.189 42.48 418.936 39.0857 425.719 39.0857C439.098 39.0857 447.86 49.8343 447.86 65.0143ZM437.967 65.0143C437.967 53.7 432.032 47.4771 423.835 47.4771C415.921 47.4771 409.703 53.6057 409.703 64.8257C409.703 75.8571 415.733 82.4571 423.835 82.4571C432.032 82.4571 437.967 76.14 437.967 65.0143Z" fill="#F0F0EE"/>
<path d="M468.153 28.4314C468.153 32.0143 465.327 34.7485 461.276 34.7485C457.224 34.7485 454.304 32.0143 454.304 28.4314C454.304 24.7543 457.224 22.1143 461.276 22.1143C465.327 22.1143 468.153 24.7543 468.153 28.4314ZM466.08 90H456.565V40.0285H466.08V90Z" fill="#F0F0EE"/>
<path d="M487.864 64.4485V90H478.348V40.0285H487.204V50.5885C490.69 43.7057 498.227 39.3685 506.424 39.3685V49.2685C495.683 48.7028 487.864 53.4171 487.864 64.4485Z" fill="#F0F0EE"/>
<path d="M509.248 65.0143C509.248 49.8343 517.916 39.0857 531.388 39.0857C538.077 39.0857 543.919 42.48 547.405 48.6085V22.3028H556.92V90H548.064V81.0428C544.484 87.36 538.454 90.9428 531.388 90.9428C517.916 90.9428 509.248 80.0057 509.248 65.0143ZM519.14 65.0143C519.14 76.14 524.982 82.4571 533.272 82.4571C541.375 82.4571 547.405 75.8571 547.405 64.8257C547.405 53.6057 541.186 47.4771 533.272 47.4771C524.982 47.4771 519.14 53.7 519.14 65.0143Z" fill="#F0F0EE"/>
<path d="M119.1 56.0792L108.026 45.0059C108.659 47.2326 110.186 54.0849 110.273 55.1815L119.1 56.0792Z" fill="#A79772"/>
<path fill-rule="evenodd" clip-rule="evenodd" d="M99.8641 86.0277L99.956 85.9096L100.038 85.7844C108.729 72.52 111.639 61.0002 110.523 51.0712C109.407 41.1382 104.326 33.3687 98.15 27.4834C85.958 15.8662 68.8185 10.9406 65.9591 10.1722C65.1649 9.95875 64.2232 9.98031 63.3237 10.404C62.4513 10.8148 61.8656 11.487 61.5302 12.1557C60.8839 13.4446 61.0299 14.9169 61.749 16.0275L64.2905 19.953C63.5681 20.0784 62.8308 20.279 62.0826 20.5668C56.5489 22.6952 52.117 29.0147 49.0908 40.3629C45.6637 53.2148 38.9453 59.76 32.4701 63.1999C25.8533 66.715 19.1669 67.1517 15.7463 67.1517C12.8356 67.1517 10.4345 66.2423 8.73327 65.3039C7.88634 64.8367 7.23478 64.3739 6.80965 64.0416C6.59804 63.8762 6.44554 63.7455 6.35607 63.6661C6.31142 63.6265 6.28277 63.5999 6.27061 63.5885L6.26631 63.5845C4.87145 62.2258 2.65854 62.184 1.21319 63.4932C-0.23846 64.8081 -0.410308 67.0279 0.82167 68.5506L3.69096 66.229C0.82167 68.5506 0.822684 68.5518 0.823905 68.5533L0.827394 68.5576L0.838116 68.5708L0.874455 68.6153C0.905268 68.653 0.949214 68.7065 1.00603 68.7751C1.11964 68.9122 1.28476 69.1099 1.49923 69.3625C1.92809 69.8675 2.55473 70.5924 3.36195 71.4916C4.97551 73.2893 7.31557 75.7893 10.2445 78.6268C16.0825 84.2824 24.3526 91.3688 33.9483 96.8819C43.5134 102.377 54.7018 106.485 66.2697 105.727C78.0132 104.958 89.6131 99.2077 99.8641 86.0277ZM10.7553 73.9424C6.28963 69.4404 3.69116 66.2289 3.69116 66.2289C3.69116 66.2289 3.69506 66.2327 3.7028 66.2402C4.57976 67.3176 58.5108 133.183 96.9513 83.7596C99.7904 79.4263 101.958 75.3351 103.543 71.4749C101.958 75.3356 99.7901 79.4276 96.9506 83.7616C66.6564 122.711 26.7416 90.0586 10.7553 73.9424ZM64.8236 13.8239C64.8006 13.8816 64.8054 13.9566 64.8474 14.0215L72.9532 26.5415C72.9552 26.5435 72.9572 26.5455 72.9592 26.5475L64.8482 14.0195C64.8067 13.9554 64.8015 13.8813 64.8236 13.8239ZM54.5912 35.2815C53.9099 37.0453 53.2617 39.0475 52.6573 41.3139C52.1346 43.2739 51.538 45.1044 50.8778 46.8139C51.5383 45.1038 52.1352 43.2727 52.6581 41.3119C53.2622 39.0464 53.9102 37.0448 54.5912 35.2815Z" fill="url(#paint0_linear_3009_32701)"/>
<path fill-rule="evenodd" clip-rule="evenodd" d="M70.951 53.9041C74.3142 65.0312 58.498 78.3921 43.613 78.3921C30.5105 78.3921 8.91146 68.608 17.7752 59.9366C20.5077 57.2634 23.5581 57.2772 26.8271 57.292C29.2406 57.303 31.7733 57.3144 34.3852 56.2455C37.5659 54.9439 39.6631 52.7931 41.6783 50.7264C42.2375 50.153 42.7903 49.5861 43.3582 49.0455C45.8571 44.4386 50.7358 41.3105 56.3451 41.3105C63.7617 41.3105 69.9011 46.7791 70.951 53.9041Z" fill="#A78F72"/>
<path d="M89.4174 51.1114C86.3596 51.1114 83.8808 48.6326 83.8808 45.5747C83.8808 42.5169 86.3596 40.0381 89.4174 40.0381C92.4753 40.0381 94.9541 42.5169 94.9541 45.5747C94.9541 48.6326 92.4753 51.1114 89.4174 51.1114Z" fill="#161619"/>
<defs>
<linearGradient id="paint0_linear_3009_32701" x1="45.1811" y1="48.9116" x2="95.3404" y2="92.8784" gradientUnits="userSpaceOnUse">
<stop stop-color="#D1C2B0"/>
<stop offset="1" stop-color="#FBEDDD"/>
</linearGradient>
</defs>
</svg>
