<svg width="1665" height="400" viewBox="0 0 1665 400" fill="none" xmlns="http://www.w3.org/2000/svg">
<path d="M78.1005 111.932C98.2309 24.4689 186.562 0.867692 228.211 0L206.519 28.6339C248.168 29.5015 276.802 72.8862 293.288 103.255C305.435 132.757 380.057 194.363 410.426 206.511C440.795 218.658 466.826 201.305 478.106 197.834C489.386 194.363 485.048 201.305 485.915 206.511C486.783 211.717 471.165 240.351 450.34 268.985C429.515 297.618 374.851 325.385 357.497 333.194C340.143 341.003 304.568 347.077 254.242 345.342C203.915 343.606 157.06 314.972 133.633 296.751C110.205 278.529 52.9374 221.262 78.1005 111.932Z" fill="url(#paint0_radial_549_49)"/>
<path d="M235.136 111.066C254.573 89.5469 281.992 96.8933 293.272 103.256C298.189 108.173 309.585 120.263 315.832 129.287C323.641 140.567 361.82 168.333 377.438 175.275C393.057 182.216 408.675 181.349 417.352 183.084C426.029 184.819 425.161 187.423 423.426 195.232C421.691 203.041 375.703 229.072 361.82 236.881C347.937 244.69 328.848 256.889 287.198 250.764C257.697 246.426 222.989 206.512 214.312 187.423C205.635 168.333 210.841 137.964 235.136 111.066Z" fill="url(#paint1_linear_549_49)"/>
<path d="M0 147.504L78.0923 112.796C76.0098 120.432 74.9108 129.861 74.6215 133.621L0 147.504Z" fill="#897F76"/>
<circle cx="69.4112" cy="122.34" r="1.73538" fill="#070707"/>
<ellipse cx="137.087" cy="112.793" rx="22.56" ry="26.8985" fill="black"/>
<circle cx="137.086" cy="101.518" r="6.94154" fill="white"/>
<path d="M194.385 383.516H236.902L255.991 347.073L272.477 346.206L255.123 383.516H273.345C277.683 383.516 279.419 388.722 279.419 392.193C279.419 394.97 274.791 397.978 272.477 399.135H194.385C190.914 399.135 190.914 393.061 190.914 390.458C190.914 388.375 193.228 384.962 194.385 383.516Z" fill="#AA937E"/>
<path d="M223.889 384.382H266.406L285.495 347.938L301.981 347.071L284.627 384.382H302.849C307.187 384.382 308.923 389.588 308.923 393.058C308.923 395.835 304.295 398.843 301.981 400H223.889C220.418 400 220.418 393.926 220.418 391.323C220.418 389.241 222.732 385.828 223.889 384.382Z" fill="#B19A84"/>
<path d="M676.537 185.213C675.875 179.01 673.081 174.181 668.157 170.724C663.28 167.268 656.935 165.54 649.123 165.54C643.63 165.54 638.919 166.368 634.989 168.025C631.059 169.683 628.053 171.932 625.969 174.773C623.886 177.613 622.821 180.857 622.773 184.503C622.773 187.533 623.46 190.161 624.833 192.386C626.253 194.612 628.171 196.506 630.586 198.068C633.001 199.583 635.676 200.862 638.611 201.903C641.547 202.945 644.506 203.821 647.489 204.531L661.126 207.94C666.618 209.219 671.897 210.947 676.964 213.125C682.077 215.303 686.646 218.049 690.671 221.363C694.743 224.678 697.963 228.679 700.33 233.366C702.698 238.054 703.881 243.546 703.881 249.844C703.881 258.366 701.703 265.871 697.347 272.358C692.991 278.797 686.694 283.84 678.455 287.486C670.264 291.084 660.344 292.883 648.697 292.883C637.38 292.883 627.555 291.131 619.222 287.628C610.936 284.124 604.449 279.01 599.762 272.287C595.122 265.563 592.612 257.372 592.233 247.713H618.157C618.536 252.779 620.098 256.993 622.844 260.355C625.59 263.717 629.165 266.226 633.569 267.883C638.019 269.541 642.991 270.369 648.483 270.369C654.213 270.369 659.232 269.517 663.54 267.812C667.896 266.06 671.305 263.646 673.768 260.568C676.23 257.443 677.484 253.797 677.532 249.631C677.484 245.843 676.372 242.718 674.194 240.256C672.016 237.746 668.962 235.663 665.032 234.006C661.149 232.301 656.604 230.786 651.395 229.46L634.847 225.199C622.868 222.121 613.398 217.457 606.438 211.207C599.525 204.91 596.069 196.553 596.069 186.136C596.069 177.566 598.389 170.061 603.029 163.622C607.716 157.183 614.085 152.187 622.134 148.636C630.183 145.038 639.298 143.238 649.478 143.238C659.8 143.238 668.843 145.038 676.608 148.636C684.421 152.187 690.553 157.135 695.003 163.48C699.454 169.777 701.751 177.022 701.893 185.213H676.537ZM751.946 226.761V290.682H726.236V145.227H751.378V200.128H752.656C755.213 193.972 759.166 189.119 764.517 185.568C769.915 181.97 776.78 180.17 785.113 180.17C792.689 180.17 799.294 181.756 804.929 184.929C810.563 188.101 814.919 192.741 817.997 198.849C821.122 204.957 822.684 212.415 822.684 221.221V290.682H796.974V225.199C796.974 217.86 795.08 212.154 791.292 208.082C787.552 203.963 782.296 201.903 775.525 201.903C770.98 201.903 766.908 202.898 763.309 204.886C759.758 206.827 756.965 209.645 754.929 213.338C752.94 217.031 751.946 221.506 751.946 226.761ZM896.477 292.812C885.824 292.812 876.591 290.469 868.778 285.781C860.966 281.094 854.905 274.536 850.596 266.108C846.335 257.68 844.204 247.831 844.204 236.562C844.204 225.293 846.335 215.421 850.596 206.946C854.905 198.47 860.966 191.889 868.778 187.202C876.591 182.514 885.824 180.17 896.477 180.17C907.131 180.17 916.363 182.514 924.176 187.202C931.988 191.889 938.025 198.47 942.287 206.946C946.595 215.421 948.75 225.293 948.75 236.562C948.75 247.831 946.595 257.68 942.287 266.108C938.025 274.536 931.988 281.094 924.176 285.781C916.363 290.469 907.131 292.812 896.477 292.812ZM896.619 272.216C902.396 272.216 907.225 270.63 911.108 267.457C914.99 264.238 917.879 259.929 919.773 254.531C921.714 249.133 922.684 243.12 922.684 236.491C922.684 229.815 921.714 223.778 919.773 218.381C917.879 212.935 914.99 208.603 911.108 205.383C907.225 202.164 902.396 200.554 896.619 200.554C890.701 200.554 885.776 202.164 881.846 205.383C877.964 208.603 875.052 212.935 873.111 218.381C871.217 223.778 870.27 229.815 870.27 236.491C870.27 243.12 871.217 249.133 873.111 254.531C875.052 259.929 877.964 264.238 881.846 267.457C885.776 270.63 890.701 272.216 896.619 272.216ZM970.572 290.682V181.591H995.501V199.773H996.637C998.626 193.475 1002.03 188.622 1006.86 185.213C1011.74 181.756 1017.3 180.028 1023.55 180.028C1024.97 180.028 1026.56 180.099 1028.31 180.241C1030.11 180.336 1031.6 180.502 1032.79 180.738V204.389C1031.7 204.01 1029.97 203.679 1027.6 203.395C1025.28 203.063 1023.03 202.898 1020.86 202.898C1016.17 202.898 1011.95 203.916 1008.21 205.952C1004.52 207.94 1001.61 210.71 999.478 214.261C997.347 217.812 996.282 221.908 996.282 226.548V290.682H970.572ZM1093.67 292.812C1082.73 292.812 1073.29 290.54 1065.33 285.994C1057.43 281.401 1051.34 274.915 1047.08 266.534C1042.82 258.106 1040.69 248.186 1040.69 236.775C1040.69 225.554 1042.82 215.705 1047.08 207.23C1051.39 198.707 1057.4 192.078 1065.12 187.344C1072.84 182.561 1081.91 180.17 1092.32 180.17C1099.05 180.17 1105.39 181.259 1111.36 183.437C1117.37 185.568 1122.67 188.882 1127.27 193.381C1131.91 197.879 1135.55 203.608 1138.2 210.568C1140.85 217.481 1142.18 225.72 1142.18 235.284V243.167H1052.76V225.838H1117.54C1117.49 220.914 1116.42 216.534 1114.34 212.699C1112.26 208.816 1109.34 205.762 1105.6 203.537C1101.91 201.311 1097.6 200.199 1092.68 200.199C1087.42 200.199 1082.81 201.477 1078.83 204.034C1074.85 206.543 1071.75 209.858 1069.52 213.977C1067.35 218.049 1066.23 222.523 1066.19 227.4V242.528C1066.19 248.873 1067.35 254.318 1069.67 258.863C1071.99 263.362 1075.23 266.818 1079.4 269.233C1083.56 271.6 1088.44 272.784 1094.03 272.784C1097.77 272.784 1101.15 272.263 1104.18 271.221C1107.21 270.132 1109.84 268.546 1112.07 266.463C1114.29 264.38 1115.97 261.799 1117.11 258.721L1141.11 261.42C1139.6 267.765 1136.71 273.305 1132.45 278.04C1128.24 282.727 1122.84 286.373 1116.26 288.977C1109.68 291.534 1102.15 292.812 1093.67 292.812ZM1165.07 290.682V145.227H1190.78V199.631H1191.84C1193.17 196.979 1195.04 194.162 1197.45 191.179C1199.87 188.148 1203.14 185.568 1207.25 183.437C1211.37 181.259 1216.63 180.17 1223.02 180.17C1231.45 180.17 1239.05 182.325 1245.82 186.633C1252.64 190.895 1258.04 197.216 1262.01 205.596C1266.04 213.93 1268.05 224.157 1268.05 236.278C1268.05 248.257 1266.09 258.437 1262.16 266.818C1258.23 275.199 1252.88 281.591 1246.1 285.994C1239.33 290.398 1231.66 292.599 1223.09 292.599C1216.84 292.599 1211.66 291.558 1207.54 289.474C1203.42 287.391 1200.11 284.881 1197.6 281.946C1195.13 278.963 1193.22 276.146 1191.84 273.494H1190.35V290.682H1165.07ZM1190.28 236.136C1190.28 243.191 1191.27 249.37 1193.26 254.673C1195.3 259.976 1198.21 264.119 1202 267.102C1205.83 270.038 1210.47 271.506 1215.92 271.506C1221.6 271.506 1226.36 269.99 1230.2 266.96C1234.03 263.882 1236.92 259.692 1238.86 254.389C1240.85 249.039 1241.84 242.954 1241.84 236.136C1241.84 229.365 1240.87 223.352 1238.93 218.096C1236.99 212.841 1234.1 208.721 1230.27 205.738C1226.43 202.755 1221.65 201.264 1215.92 201.264C1210.43 201.264 1205.76 202.708 1201.93 205.596C1198.09 208.485 1195.18 212.533 1193.19 217.741C1191.25 222.95 1190.28 229.081 1190.28 236.136ZM1289.91 290.682V181.591H1315.62V290.682H1289.91ZM1302.83 166.108C1298.76 166.108 1295.26 164.758 1292.32 162.059C1289.39 159.313 1287.92 156.023 1287.92 152.187C1287.92 148.305 1289.39 145.014 1292.32 142.315C1295.26 139.569 1298.76 138.196 1302.83 138.196C1306.95 138.196 1310.46 139.569 1313.34 142.315C1316.28 145.014 1317.75 148.305 1317.75 152.187C1317.75 156.023 1316.28 159.313 1313.34 162.059C1310.46 164.758 1306.95 166.108 1302.83 166.108ZM1342.06 290.682V181.591H1366.98V199.773H1368.12C1370.11 193.475 1373.52 188.622 1378.35 185.213C1383.23 181.756 1388.79 180.028 1395.04 180.028C1396.46 180.028 1398.05 180.099 1399.8 180.241C1401.6 180.336 1403.09 180.502 1404.27 180.738V204.389C1403.18 204.01 1401.45 203.679 1399.09 203.395C1396.77 203.063 1394.52 202.898 1392.34 202.898C1387.65 202.898 1383.44 203.916 1379.7 205.952C1376 207.94 1373.09 210.71 1370.96 214.261C1368.83 217.812 1367.77 221.908 1367.77 226.548V290.682H1342.06ZM1457.34 292.599C1448.77 292.599 1441.1 290.398 1434.33 285.994C1427.56 281.591 1422.21 275.199 1418.28 266.818C1414.35 258.437 1412.39 248.257 1412.39 236.278C1412.39 224.157 1414.37 213.93 1418.35 205.596C1422.38 197.216 1427.8 190.895 1434.62 186.633C1441.43 182.325 1449.03 180.17 1457.41 180.17C1463.81 180.17 1469.06 181.259 1473.18 183.437C1477.3 185.568 1480.57 188.148 1482.98 191.179C1485.4 194.162 1487.27 196.979 1488.59 199.631H1489.66V145.227H1515.44V290.682H1490.16V273.494H1488.59C1487.27 276.146 1485.35 278.963 1482.84 281.946C1480.33 284.881 1477.02 287.391 1472.9 289.474C1468.78 291.558 1463.59 292.599 1457.34 292.599ZM1464.52 271.506C1469.96 271.506 1474.6 270.038 1478.44 267.102C1482.27 264.119 1485.18 259.976 1487.17 254.673C1489.16 249.37 1490.16 243.191 1490.16 236.136C1490.16 229.081 1489.16 222.95 1487.17 217.741C1485.23 212.533 1482.34 208.485 1478.51 205.596C1474.72 202.708 1470.06 201.264 1464.52 201.264C1458.79 201.264 1454.01 202.755 1450.17 205.738C1446.34 208.721 1443.45 212.841 1441.51 218.096C1439.56 223.352 1438.59 229.365 1438.59 236.136C1438.59 242.954 1439.56 249.039 1441.51 254.389C1443.49 259.692 1446.41 263.882 1450.24 266.96C1454.12 269.99 1458.88 271.506 1464.52 271.506Z" fill="white"/>
<defs>
<radialGradient id="paint0_radial_549_49" cx="0" cy="0" r="1" gradientUnits="userSpaceOnUse" gradientTransform="translate(327.7 115.509) rotate(131.66) scale(277.887 493.14)">
<stop offset="0.0263478" stop-color="#897F75"/>
<stop offset="0.538541" stop-color="#DEDAD4"/>
<stop offset="0.86124" stop-color="#F2F4F3"/>
</radialGradient>
<linearGradient id="paint1_linear_549_49" x1="332.318" y1="146.641" x2="259.432" y2="233.41" gradientUnits="userSpaceOnUse">
<stop stop-color="#AE9883"/>
<stop offset="1" stop-color="#A9927D"/>
</linearGradient>
</defs>
</svg>
